<svg width="189" height="45" viewBox="0 0 189 45" fill="none" xmlns="http://www.w3.org/2000/svg">
    <path d="M53.117 29.4863V11.9663H57.581V29.4863H53.117ZM60.9863 29.4863V16.2383H64.4423V19.7183C64.6983 18.4063 65.2023 17.4303 65.9543 16.7903C66.7063 16.1343 67.6823 15.8063 68.8823 15.8063H69.0743C70.5783 15.8063 71.7383 16.3103 72.5543 17.3183C73.3863 18.3103 73.8023 19.8383 73.8023 21.9023V29.4863H69.4343V21.7823C69.4343 21.1743 69.2503 20.6783 68.8823 20.2943C68.5303 19.8943 68.0423 19.6943 67.4183 19.6943C66.7943 19.6943 66.2903 19.8943 65.9063 20.2943C65.5383 20.6783 65.3543 21.1903 65.3543 21.8303V29.4863H60.9863ZM83.0483 29.6783C81.6083 29.6783 80.4563 29.5023 79.5923 29.1503C78.7443 28.7983 78.1283 28.2143 77.7443 27.3983C77.3603 26.5823 77.1683 25.4783 77.1683 24.0863V19.4063H75.2483V16.2383H77.1923V12.7823H81.2243V16.2383H84.8483V19.4063H81.2003V24.2063C81.2003 25.4223 81.8083 26.0303 83.0243 26.0303H84.8483V29.6783H83.0483ZM93.3586 29.9663C92.2386 29.9663 91.2466 29.7743 90.3826 29.3903C89.5186 29.0063 88.7906 28.4863 88.1986 27.8303C87.6066 27.1743 87.1506 26.4383 86.8306 25.6223C86.5266 24.8063 86.3746 23.9663 86.3746 23.1023V22.6223C86.3746 21.7263 86.5266 20.8703 86.8306 20.0543C87.1506 19.2223 87.5986 18.4863 88.1746 17.8463C88.7666 17.2063 89.4866 16.7023 90.3346 16.3343C91.1826 15.9503 92.1426 15.7583 93.2146 15.7583C94.6386 15.7583 95.8466 16.0783 96.8386 16.7183C97.8306 17.3583 98.5906 18.2063 99.1186 19.2623C99.6466 20.3023 99.9106 21.4383 99.9106 22.6703V24.0623H90.5026C90.6466 24.8143 90.9506 25.4063 91.4146 25.8383C91.8786 26.2543 92.5266 26.4623 93.3586 26.4623C94.5746 26.4623 95.3506 26.0783 95.6866 25.3103H99.6706C99.4786 26.2063 99.0946 27.0063 98.5186 27.7103C97.9586 28.4143 97.2386 28.9663 96.3586 29.3663C95.4946 29.7663 94.4946 29.9663 93.3586 29.9663ZM93.2146 19.2623C92.4946 19.2623 91.8946 19.4703 91.4146 19.8863C90.9506 20.2863 90.6466 20.8943 90.5026 21.7103H95.8066C95.5346 20.0783 94.6706 19.2623 93.2146 19.2623ZM102.213 29.4863V16.2383H105.669V20.9183C105.813 19.3983 106.261 18.2063 107.013 17.3423C107.781 16.4783 108.821 16.0463 110.133 16.0463H110.661V19.7903H109.653C108.677 19.7903 107.917 20.0543 107.373 20.5823C106.845 21.1103 106.581 21.8703 106.581 22.8623V29.4863H102.213ZM112.385 29.4863V16.2383H115.841V19.7183C116.097 18.4063 116.601 17.4303 117.353 16.7903C118.105 16.1343 119.081 15.8063 120.281 15.8063H120.473C121.977 15.8063 123.137 16.3103 123.953 17.3183C124.785 18.3103 125.201 19.8383 125.201 21.9023V29.4863H120.833V21.7823C120.833 21.1743 120.649 20.6783 120.281 20.2943C119.929 19.8943 119.441 19.6943 118.817 19.6943C118.193 19.6943 117.689 19.8943 117.305 20.2943C116.937 20.6783 116.753 21.1903 116.753 21.8303V29.4863H112.385ZM134.735 29.9663C133.183 29.9663 131.855 29.6623 130.751 29.0543C129.647 28.4303 128.807 27.6063 128.231 26.5823C127.655 25.5583 127.367 24.4303 127.367 23.1983V22.6223C127.367 21.3263 127.663 20.1663 128.255 19.1423C128.863 18.1023 129.719 17.2783 130.823 16.6703C131.927 16.0623 133.231 15.7583 134.735 15.7583C136.239 15.7583 137.543 16.0623 138.647 16.6703C139.751 17.2783 140.599 18.1023 141.191 19.1423C141.799 20.1663 142.103 21.3263 142.103 22.6223V23.1983C142.103 24.4303 141.815 25.5583 141.239 26.5823C140.663 27.6063 139.823 28.4303 138.719 29.0543C137.631 29.6623 136.303 29.9663 134.735 29.9663ZM134.735 26.3183C135.727 26.3183 136.471 25.9983 136.967 25.3583C137.479 24.7183 137.735 23.9023 137.735 22.9103C137.735 21.8863 137.471 21.0463 136.943 20.3903C136.431 19.7343 135.695 19.4063 134.735 19.4063C133.775 19.4063 133.031 19.7343 132.503 20.3903C131.991 21.0463 131.735 21.8863 131.735 22.9103C131.735 23.9023 131.983 24.7183 132.479 25.3583C132.991 25.9983 133.743 26.3183 134.735 26.3183ZM144.494 34.2863V16.2383H147.95V19.6223C148.334 18.4063 148.974 17.4783 149.87 16.8383C150.766 16.1823 151.838 15.8543 153.086 15.8543C154.302 15.8543 155.358 16.1423 156.254 16.7183C157.15 17.2943 157.846 18.0863 158.342 19.0943C158.838 20.1023 159.086 21.2543 159.086 22.5503V23.1263C159.086 24.4223 158.854 25.5823 158.39 26.6063C157.942 27.6303 157.27 28.4383 156.374 29.0303C155.494 29.6223 154.406 29.9183 153.11 29.9183C152.198 29.9183 151.374 29.7583 150.638 29.4383C149.918 29.1183 149.326 28.6303 148.862 27.9743V34.2863H144.494ZM151.79 26.3183C152.654 26.3183 153.358 25.9983 153.902 25.3583C154.446 24.7023 154.718 23.8623 154.718 22.8383C154.718 21.8143 154.446 20.9983 153.902 20.3903C153.374 19.7663 152.67 19.4543 151.79 19.4543C151.262 19.4543 150.766 19.5743 150.302 19.8143C149.854 20.0543 149.486 20.4063 149.198 20.8703C148.91 21.3343 148.766 21.8943 148.766 22.5503V23.3663C148.766 23.9903 148.918 24.5263 149.222 24.9743C149.526 25.4063 149.91 25.7423 150.374 25.9823C150.838 26.2063 151.31 26.3183 151.79 26.3183ZM165.302 29.8223C163.894 29.8223 162.742 29.4543 161.846 28.7183C160.966 27.9663 160.526 26.9263 160.526 25.5983C160.526 24.6063 160.79 23.8063 161.318 23.1983C161.846 22.5743 162.574 22.1183 163.502 21.8303C164.43 21.5423 165.494 21.3983 166.694 21.3983H168.782C168.766 20.7903 168.614 20.3503 168.326 20.0783C168.054 19.7903 167.606 19.6463 166.982 19.6463C166.678 19.6463 166.23 19.6543 165.638 19.6703C165.046 19.6863 164.422 19.7103 163.766 19.7423C163.11 19.7743 162.51 19.8063 161.966 19.8383V16.1903C162.35 16.1583 162.806 16.1263 163.334 16.0943C163.862 16.0623 164.406 16.0383 164.966 16.0223C165.542 16.0063 166.07 15.9983 166.55 15.9983C168.598 15.9983 170.174 16.4463 171.278 17.3423C172.398 18.2383 172.958 19.6063 172.958 21.4463V29.4863H169.502V27.0383C169.214 27.9343 168.718 28.6223 168.014 29.1023C167.31 29.5823 166.406 29.8223 165.302 29.8223ZM166.694 26.8943C167.254 26.8943 167.726 26.7343 168.11 26.4143C168.51 26.0783 168.734 25.4703 168.782 24.5903V23.6543H166.694C166.102 23.6543 165.646 23.8063 165.326 24.1103C165.006 24.3983 164.846 24.7903 164.846 25.2863C164.846 25.7663 165.006 26.1583 165.326 26.4623C165.646 26.7503 166.102 26.8943 166.694 26.8943ZM177.876 29.1983L174.012 16.2383H178.38L181.068 25.8383H181.5L183.636 16.2383H187.764L184.284 30.4463C184.028 31.5343 183.668 32.3903 183.204 33.0143C182.756 33.6543 182.132 34.1023 181.332 34.3583C180.548 34.6303 179.524 34.7663 178.26 34.7663H175.692V31.1183H178.74C179.3 31.1183 179.724 31.0063 180.012 30.7823C180.316 30.5743 180.532 30.1823 180.66 29.6063L180.756 29.1983H177.876Z"
          fill="white"/>
    <path d="M37.9402 28.9401C39.0333 26.3669 39.4749 23.564 39.2259 20.7794C38.9769 17.9948 38.045 15.3147 36.5128 12.9763C34.9806 10.6379 32.8953 8.71346 30.4417 7.37347C27.9881 6.03347 25.2419 5.31927 22.4464 5.29412C19.6508 5.26897 16.8922 5.93365 14.4149 7.22929C11.9376 8.52492 9.81802 10.4115 8.24399 12.722C6.66995 15.0324 5.69001 17.6954 5.39097 20.475C5.09193 23.2546 5.48302 26.0651 6.5296 28.6575L12.0441 26.4312C11.3636 24.7457 11.1093 22.9184 11.3037 21.1111C11.4982 19.3039 12.1353 17.5724 13.1587 16.0702C14.1821 14.568 15.5602 13.3414 17.1709 12.499C18.7816 11.6566 20.5752 11.2244 22.3929 11.2408C24.2105 11.2571 25.996 11.7215 27.5913 12.5927C29.1866 13.464 30.5424 14.7152 31.5386 16.2356C32.5349 17.756 33.1407 19.4986 33.3026 21.309C33.4645 23.1195 33.1774 24.942 32.4667 26.615L37.9402 28.9401Z"
          fill="#00B0E8"/>
    <path d="M15.0113 19.4925C14.5507 20.6901 14.3926 21.9829 14.551 23.2563C14.7093 24.5297 15.1793 25.7444 15.9192 26.7927C16.6591 27.8411 17.6462 28.6908 18.7929 29.2666C19.9397 29.8424 21.2108 30.1265 22.4935 30.0937C23.7763 30.0609 25.0312 29.7123 26.147 29.0787C27.2629 28.4451 28.2053 27.546 28.8907 26.4613C29.5761 25.3765 29.9834 24.1394 30.0765 22.8595C30.1696 21.5797 29.9457 20.2967 29.4245 19.1241L24.7474 21.203C24.9267 21.6064 25.0037 22.0478 24.9717 22.4882C24.9397 22.9285 24.7995 23.3541 24.5637 23.7273C24.3279 24.1006 24.0037 24.4099 23.6198 24.6279C23.2359 24.8458 22.8041 24.9658 22.3628 24.9771C21.9214 24.9884 21.4841 24.8906 21.0896 24.6925C20.695 24.4944 20.3554 24.2021 20.1009 23.8414C19.8463 23.4807 19.6846 23.0628 19.6301 22.6247C19.5756 22.1866 19.63 21.7418 19.7885 21.3297L15.0113 19.4925Z"
          fill="#00B0E8"/>
</svg>
