<svg width="191" height="45" viewBox="0 0 191 45" fill="none" xmlns="http://www.w3.org/2000/svg">
    <path d="M55.117 28.4863V10.9663H59.581V28.4863H55.117ZM62.9863 28.4863V15.2383H66.4423V18.7183C66.6983 17.4063 67.2023 16.4303 67.9543 15.7903C68.7063 15.1343 69.6823 14.8063 70.8823 14.8063H71.0743C72.5783 14.8063 73.7383 15.3103 74.5543 16.3183C75.3863 17.3103 75.8023 18.8383 75.8023 20.9023V28.4863H71.4343V20.7823C71.4343 20.1743 71.2503 19.6783 70.8823 19.2943C70.5303 18.8943 70.0423 18.6943 69.4183 18.6943C68.7943 18.6943 68.2903 18.8943 67.9063 19.2943C67.5383 19.6783 67.3543 20.1903 67.3543 20.8303V28.4863H62.9863ZM85.0483 28.6783C83.6083 28.6783 82.4563 28.5023 81.5923 28.1503C80.7443 27.7983 80.1283 27.2143 79.7443 26.3983C79.3603 25.5823 79.1683 24.4783 79.1683 23.0863V18.4063H77.2483V15.2383H79.1923V11.7823H83.2243V15.2383H86.8483V18.4063H83.2003V23.2063C83.2003 24.4223 83.8083 25.0303 85.0243 25.0303H86.8483V28.6783H85.0483ZM95.3586 28.9663C94.2386 28.9663 93.2466 28.7743 92.3826 28.3903C91.5186 28.0063 90.7906 27.4863 90.1986 26.8303C89.6066 26.1743 89.1506 25.4383 88.8306 24.6223C88.5266 23.8063 88.3746 22.9663 88.3746 22.1023V21.6223C88.3746 20.7263 88.5266 19.8703 88.8306 19.0543C89.1506 18.2223 89.5986 17.4863 90.1746 16.8463C90.7666 16.2063 91.4866 15.7023 92.3346 15.3343C93.1826 14.9503 94.1426 14.7583 95.2146 14.7583C96.6386 14.7583 97.8466 15.0783 98.8386 15.7183C99.8306 16.3583 100.591 17.2063 101.119 18.2623C101.647 19.3023 101.911 20.4383 101.911 21.6703V23.0623H92.5026C92.6466 23.8143 92.9506 24.4063 93.4146 24.8383C93.8786 25.2543 94.5266 25.4623 95.3586 25.4623C96.5746 25.4623 97.3506 25.0783 97.6866 24.3103H101.671C101.479 25.2063 101.095 26.0063 100.519 26.7103C99.9586 27.4143 99.2386 27.9663 98.3586 28.3663C97.4946 28.7663 96.4946 28.9663 95.3586 28.9663ZM95.2146 18.2623C94.4946 18.2623 93.8946 18.4703 93.4146 18.8863C92.9506 19.2863 92.6466 19.8943 92.5026 20.7103H97.8066C97.5346 19.0783 96.6706 18.2623 95.2146 18.2623ZM104.213 28.4863V15.2383H107.669V19.9183C107.813 18.3983 108.261 17.2063 109.013 16.3423C109.781 15.4783 110.821 15.0463 112.133 15.0463H112.661V18.7903H111.653C110.677 18.7903 109.917 19.0543 109.373 19.5823C108.845 20.1103 108.581 20.8703 108.581 21.8623V28.4863H104.213ZM114.385 28.4863V15.2383H117.841V18.7183C118.097 17.4063 118.601 16.4303 119.353 15.7903C120.105 15.1343 121.081 14.8063 122.281 14.8063H122.473C123.977 14.8063 125.137 15.3103 125.953 16.3183C126.785 17.3103 127.201 18.8383 127.201 20.9023V28.4863H122.833V20.7823C122.833 20.1743 122.649 19.6783 122.281 19.2943C121.929 18.8943 121.441 18.6943 120.817 18.6943C120.193 18.6943 119.689 18.8943 119.305 19.2943C118.937 19.6783 118.753 20.1903 118.753 20.8303V28.4863H114.385ZM136.735 28.9663C135.183 28.9663 133.855 28.6623 132.751 28.0543C131.647 27.4303 130.807 26.6063 130.231 25.5823C129.655 24.5583 129.367 23.4303 129.367 22.1983V21.6223C129.367 20.3263 129.663 19.1663 130.255 18.1423C130.863 17.1023 131.719 16.2783 132.823 15.6703C133.927 15.0623 135.231 14.7583 136.735 14.7583C138.239 14.7583 139.543 15.0623 140.647 15.6703C141.751 16.2783 142.599 17.1023 143.191 18.1423C143.799 19.1663 144.103 20.3263 144.103 21.6223V22.1983C144.103 23.4303 143.815 24.5583 143.239 25.5823C142.663 26.6063 141.823 27.4303 140.719 28.0543C139.631 28.6623 138.303 28.9663 136.735 28.9663ZM136.735 25.3183C137.727 25.3183 138.471 24.9983 138.967 24.3583C139.479 23.7183 139.735 22.9023 139.735 21.9103C139.735 20.8863 139.471 20.0463 138.943 19.3903C138.431 18.7343 137.695 18.4063 136.735 18.4063C135.775 18.4063 135.031 18.7343 134.503 19.3903C133.991 20.0463 133.735 20.8863 133.735 21.9103C133.735 22.9023 133.983 23.7183 134.479 24.3583C134.991 24.9983 135.743 25.3183 136.735 25.3183ZM146.494 33.2863V15.2383H149.95V18.6223C150.334 17.4063 150.974 16.4783 151.87 15.8383C152.766 15.1823 153.838 14.8543 155.086 14.8543C156.302 14.8543 157.358 15.1423 158.254 15.7183C159.15 16.2943 159.846 17.0863 160.342 18.0943C160.838 19.1023 161.086 20.2543 161.086 21.5503V22.1263C161.086 23.4223 160.854 24.5823 160.39 25.6063C159.942 26.6303 159.27 27.4383 158.374 28.0303C157.494 28.6223 156.406 28.9183 155.11 28.9183C154.198 28.9183 153.374 28.7583 152.638 28.4383C151.918 28.1183 151.326 27.6303 150.862 26.9743V33.2863H146.494ZM153.79 25.3183C154.654 25.3183 155.358 24.9983 155.902 24.3583C156.446 23.7023 156.718 22.8623 156.718 21.8383C156.718 20.8143 156.446 19.9983 155.902 19.3903C155.374 18.7663 154.67 18.4543 153.79 18.4543C153.262 18.4543 152.766 18.5743 152.302 18.8143C151.854 19.0543 151.486 19.4063 151.198 19.8703C150.91 20.3343 150.766 20.8943 150.766 21.5503V22.3663C150.766 22.9903 150.918 23.5263 151.222 23.9743C151.526 24.4063 151.91 24.7423 152.374 24.9823C152.838 25.2063 153.31 25.3183 153.79 25.3183ZM167.302 28.8223C165.894 28.8223 164.742 28.4543 163.846 27.7183C162.966 26.9663 162.526 25.9263 162.526 24.5983C162.526 23.6063 162.79 22.8063 163.318 22.1983C163.846 21.5743 164.574 21.1183 165.502 20.8303C166.43 20.5423 167.494 20.3983 168.694 20.3983H170.782C170.766 19.7903 170.614 19.3503 170.326 19.0783C170.054 18.7903 169.606 18.6463 168.982 18.6463C168.678 18.6463 168.23 18.6543 167.638 18.6703C167.046 18.6863 166.422 18.7103 165.766 18.7423C165.11 18.7743 164.51 18.8063 163.966 18.8383V15.1903C164.35 15.1583 164.806 15.1263 165.334 15.0943C165.862 15.0623 166.406 15.0383 166.966 15.0223C167.542 15.0063 168.07 14.9983 168.55 14.9983C170.598 14.9983 172.174 15.4463 173.278 16.3423C174.398 17.2383 174.958 18.6063 174.958 20.4463V28.4863H171.502V26.0383C171.214 26.9343 170.718 27.6223 170.014 28.1023C169.31 28.5823 168.406 28.8223 167.302 28.8223ZM168.694 25.8943C169.254 25.8943 169.726 25.7343 170.11 25.4143C170.51 25.0783 170.734 24.4703 170.782 23.5903V22.6543H168.694C168.102 22.6543 167.646 22.8063 167.326 23.1103C167.006 23.3983 166.846 23.7903 166.846 24.2863C166.846 24.7663 167.006 25.1583 167.326 25.4623C167.646 25.7503 168.102 25.8943 168.694 25.8943ZM179.876 28.1983L176.012 15.2383H180.38L183.068 24.8383H183.5L185.636 15.2383H189.764L186.284 29.4463C186.028 30.5343 185.668 31.3903 185.204 32.0143C184.756 32.6543 184.132 33.1023 183.332 33.3583C182.548 33.6303 181.524 33.7663 180.26 33.7663H177.692V30.1183H180.74C181.3 30.1183 181.724 30.0063 182.012 29.7823C182.316 29.5743 182.532 29.1823 182.66 28.6063L182.756 28.1983H179.876Z"
          fill="#003146"/>
    <path d="M37.9402 28.9401C39.0333 26.3669 39.4749 23.564 39.2259 20.7794C38.9769 17.9948 38.045 15.3147 36.5128 12.9763C34.9806 10.6379 32.8953 8.71346 30.4417 7.37347C27.9881 6.03347 25.2419 5.31927 22.4464 5.29412C19.6508 5.26897 16.8922 5.93365 14.4149 7.22929C11.9376 8.52492 9.81802 10.4115 8.24399 12.722C6.66995 15.0324 5.69001 17.6954 5.39097 20.475C5.09193 23.2546 5.48302 26.0651 6.5296 28.6575L12.0441 26.4312C11.3636 24.7457 11.1093 22.9184 11.3037 21.1111C11.4982 19.3039 12.1353 17.5724 13.1587 16.0702C14.1821 14.568 15.5602 13.3414 17.1709 12.499C18.7816 11.6566 20.5752 11.2244 22.3929 11.2408C24.2105 11.2571 25.996 11.7215 27.5913 12.5927C29.1866 13.464 30.5424 14.7152 31.5386 16.2356C32.5349 17.756 33.1407 19.4986 33.3026 21.309C33.4645 23.1195 33.1774 24.942 32.4667 26.615L37.9402 28.9401Z"
          fill="#00B6F0"/>
    <path d="M15.0113 19.4925C14.5507 20.6901 14.3926 21.9829 14.551 23.2563C14.7093 24.5297 15.1793 25.7444 15.9192 26.7927C16.6591 27.8411 17.6462 28.6908 18.7929 29.2666C19.9397 29.8424 21.2108 30.1265 22.4935 30.0937C23.7763 30.0609 25.0312 29.7123 26.147 29.0787C27.2629 28.4451 28.2053 27.546 28.8907 26.4613C29.5761 25.3765 29.9834 24.1394 30.0765 22.8595C30.1696 21.5797 29.9457 20.2967 29.4245 19.1241L24.7474 21.203C24.9267 21.6064 25.0037 22.0478 24.9717 22.4882C24.9397 22.9285 24.7995 23.3541 24.5637 23.7273C24.3279 24.1006 24.0037 24.4099 23.6198 24.6279C23.2359 24.8458 22.8041 24.9658 22.3628 24.9771C21.9214 24.9884 21.4841 24.8906 21.0896 24.6925C20.695 24.4944 20.3554 24.2021 20.1009 23.8414C19.8463 23.4807 19.6846 23.0628 19.6301 22.6247C19.5756 22.1866 19.63 21.7418 19.7885 21.3297L15.0113 19.4925Z"
          fill="#00B6F0"/>
</svg>
